<?xml version="1.0" encoding="UTF-8"?><svg id="Layer_1" xmlns="http://www.w3.org/2000/svg" viewBox="0 0 200 250"><defs><style>.cls-1{fill:#0f172a;}</style></defs><path class="cls-1" d="M124.8,43.99c-1.5,0-3-.6-4.1-1.7-10.9-11.3-30.5-11.3-41.4,0-2.3,2.3-6,2.3-8.3,0-8.3-11.3,20.6-21.2,29-20.2,8.4-1,37.3,9,28.9,20.2-1.1,1.1-2.6,1.7-4.1,1.7Z"/><path class="cls-1" d="M160,114.49c-1.6-5.5-5.7-9.9-11.1-11.8-15.6-5.5-29.5-8.6-43.1-9.3v-14c2.4-.8,4.6-2.2,6.6-4.1,16-16.5-8.2-40.8-24.8-24.8-6.8,6.8-6.8,18,0,24.8,1.9,1.9,4.2,3.3,6.6,4.1v14c-13.7.7-27.5,3.8-43.1,9.3-5.3,1.9-9.5,6.3-11,11.8-5.2,18.1-5.2,37.3,0,55.4,3.7,13.5,21.1,14.5,31.8,17.9v6.4c1,37.2,55.4,37.2,56.4,0v-6.4c10.7-3.3,28.1-4.4,31.8-17.9,5.1-18.2,5.1-37.3-.1-55.4ZM95.9,58.79c5.4-5.4,13.6,2.8,8.3,8.3-5.5,5.4-13.7-2.8-8.3-8.3ZM116.5,194.09c-.4,21.7-32.7,21.7-33,0v-4.3c5.6.8,11,1.2,16.5,1.2s10.9-.4,16.5-1.2v4.3h0ZM148.8,166.59c-.5,1.9-1.9,3.4-3.7,4-33.3,11.7-56.9,11.7-90.2,0-9.6-4.2-9.5-52.7,0-56.9,33.3-11.7,56.9-11.7,90.2,0,1.8.6,3.2,2.1,3.7,4,4.6,16,4.6,32.9,0,48.9Z"/><path class="cls-1" d="M72.7,118.79c-23,.4-23,34.6,0,35.1,23-.5,23-34.7,0-35.1ZM72.7,142.09c-7.6,0-7.6-11.6,0-11.7,7.6.1,7.6,11.7,0,11.7Z"/><path class="cls-1" d="M127.3,118.79c-23,.4-23,34.6,0,35.1,23-.5,23-34.7,0-35.1ZM127.3,142.09c-7.6,0-7.6-11.6,0-11.7,7.7.1,7.7,11.7,0,11.7Z"/><path class="cls-1" d="M104.1,156.99c-2.3,2.3-6,2.3-8.3,0s-6-2.3-8.3,0c-6.2,7.4,5.8,13.8,12.4,13.4,4.7,0,9.1-1.8,12.4-5.1,5.5-5.3-2.9-13.7-8.2-8.3Z"/></svg>