<?xml version="1.0" encoding="UTF-8"?><svg id="Layer_1" xmlns="http://www.w3.org/2000/svg" viewBox="0 0 110 135"><defs><style>.cls-1{fill:#fff;fill-rule:evenodd;}</style></defs><path class="cls-1" d="M20.62,89.43v12.76c0,1.24.73,2.36,1.86,2.86s2.45.29,3.38-.55c0,0,4.64-4.22,9.09-8.28,4.63-4.21,10.66-6.54,16.91-6.54h34.39c4.97,0,9.75-1.98,13.27-5.49,3.52-3.52,5.48-8.28,5.48-13.25v-32.82c0-1.73-1.41-3.12-3.12-3.12s-3.12,1.4-3.12,3.12v32.82c0,3.31-1.31,6.49-3.66,8.84s-5.53,3.66-8.84,3.66h-34.39c-7.8,0-15.33,2.91-21.11,8.16l-3.88,3.53v-8.56c0-1.73-1.41-3.12-3.12-3.12-3.31,0-6.5-1.32-8.84-3.66s-3.66-5.52-3.66-8.84v-37.51c0-3.31,1.31-6.49,3.66-8.84,2.34-2.34,5.53-3.66,8.84-3.66h57.81c1.72,0,3.12-1.4,3.12-3.12s-1.41-3.12-3.12-3.12H23.75c-4.97,0-9.75,1.98-13.27,5.49-3.52,3.52-5.48,8.28-5.48,13.25v37.51c0,4.97,1.97,9.74,5.48,13.25,2.78,2.77,6.33,4.59,10.14,5.23h0ZM76.72,26.22c-.42-1.29-1.61-2.16-2.97-2.16s-2.55.87-2.97,2.16l-4.11,12.64-12.64,4.11c-1.28.42-2.16,1.62-2.16,2.97s.88,2.55,2.16,2.97l12.64,4.11,4.11,12.64c.42,1.29,1.61,2.16,2.97,2.16s2.55-.87,2.97-2.16l4.11-12.64,12.64-4.11c1.28-.42,2.16-1.62,2.16-2.97s-.88-2.55-2.16-2.97l-12.64-4.11s-4.11-12.64-4.11-12.64ZM26.88,67.81h37.5c1.72,0,3.12-1.4,3.12-3.12s-1.41-3.12-3.12-3.12H26.88c-1.72,0-3.12,1.4-3.12,3.12s1.41,3.12,3.12,3.12ZM26.88,55.31h21.88c1.72,0,3.12-1.4,3.12-3.12s-1.41-3.12-3.12-3.12h-21.88c-1.72,0-3.12,1.4-3.12,3.12s1.41,3.12,3.12,3.12ZM73.75,37.29l1.62,5.01c.31.95,1.06,1.7,2.02,2l5,1.63-5,1.63c-.95.31-1.7,1.05-2.02,2l-1.62,5.01-1.62-5.01c-.31-.95-1.06-1.7-2.02-2l-5-1.63,5-1.63c.95-.31,1.7-1.05,2.02-2l1.62-5.01ZM26.88,42.81h21.88c1.72,0,3.12-1.4,3.12-3.12s-1.41-3.12-3.12-3.12h-21.88c-1.72,0-3.12,1.4-3.12,3.12s1.41,3.12,3.12,3.12ZM97.03,16.85c-.42-1.29-1.61-2.16-2.97-2.16s-2.55.87-2.97,2.16l-1.42,4.38-4.39,1.43c-1.28.42-2.16,1.62-2.16,2.97s.88,2.55,2.16,2.97l4.39,1.43,1.42,4.38c.42,1.29,1.61,2.16,2.97,2.16s2.55-.87,2.97-2.16l1.42-4.38,4.39-1.43c1.28-.42,2.16-1.62,2.16-2.97s-.88-2.55-2.16-2.97l-4.39-1.43s-1.42-4.38-1.42-4.38Z"/></svg>