<svg width="960" height="960" viewBox="0 0 960 960" fill="none" xmlns="http://www.w3.org/2000/svg">
<g clip-path="url(#clip0_38_4074)">
<path fill-rule="evenodd" clip-rule="evenodd" d="M616.825 285.885C620.325 281.807 622.152 276.556 621.941 271.185C621.863 268.446 621.192 265.756 619.975 263.3C617.532 258.713 613.704 255.012 609.036 252.725C604.391 250.457 599.431 248.903 594.322 248.115C583.373 246.125 572.189 245.772 561.136 247.069L560.975 246.977H560.964C559.297 250.44 558.832 254.36 559.642 258.116V258.216C562.432 258.251 565.212 258.296 568.002 258.342L568.113 258.343C571.114 258.389 574.217 258.458 576.93 259.734C579.861 261.124 582.931 265.056 581.873 268.481C581.478 269.76 580.712 270.892 579.673 271.734L579.731 271.803C579.103 274.112 579.029 276.537 579.514 278.88C580 281.223 581.031 283.418 582.524 285.287C585.59 289.228 589.965 291.94 594.858 292.931C598.816 293.774 602.926 293.567 606.779 292.331C610.633 291.095 614.096 288.873 616.825 285.885ZM596.318 280.381C594.651 272.07 609.79 269.989 609.227 278.944C609.104 280.516 608.455 281.999 607.385 283.157C606.315 284.314 604.887 285.077 603.33 285.323C601.762 285.481 600.191 285.068 598.903 284.16C597.615 283.252 596.697 281.911 596.318 280.381ZM596.542 251.501C595.59 251.498 594.815 252.268 594.813 253.221C594.81 254.173 595.58 254.947 596.532 254.95C599.798 254.959 602.995 255.88 605.767 257.607C608.538 259.334 610.772 261.801 612.218 264.728C612.64 265.582 613.674 265.933 614.528 265.511C615.382 265.089 615.732 264.055 615.31 263.201C613.58 259.698 610.907 256.747 607.591 254.68C604.275 252.613 600.449 251.512 596.542 251.501Z" fill="white"/>
<path fill-rule="evenodd" clip-rule="evenodd" d="M409.674 282.369C429.02 275.909 449.327 274.357 469.827 273.932C475.896 273.805 481.985 273.775 488.07 273.746C495.123 273.713 502.17 273.679 509.174 273.491L509.324 273.445C508.301 270.732 509.301 267.456 511.117 265.111C513.795 261.639 517.98 259.582 522.256 258.639C523.239 258.424 524.233 258.259 525.233 258.145V258.111C525.279 253.697 525.359 249.28 525.44 244.88L524.451 244.857C514.23 251.783 502.515 256.191 490.264 257.721C478.014 259.252 465.574 257.861 453.964 253.662C448.855 251.761 443.909 249.308 438.974 246.861C429.65 242.238 420.365 237.634 410.099 236.799C391.006 235.247 373.671 247.028 358.268 258.409C342.865 269.79 325.875 281.882 306.736 281.066C294.154 280.532 282.849 274.478 271.532 268.417C260.473 262.496 249.404 256.568 237.122 255.777C221.684 254.787 207.382 262.034 193.365 269.137C190.63 270.523 187.906 271.903 185.187 273.215C168.531 281.254 148.081 286.933 132.862 276.415L132.644 276.61C109.642 325.166 87.629 374.157 66.605 423.585L66.582 423.746C80.932 433.42 97.193 440.586 114.332 442.92C131.471 445.254 149.53 442.562 164.485 433.862C173.685 428.507 181.419 421.125 189.152 413.745C192.077 410.953 195.001 408.162 198.004 405.481C208.948 395.711 222.017 386.951 236.685 386.411C249.594 385.928 261.825 391.87 273.021 398.342C274.472 399.181 275.922 400.034 277.375 400.887C287.127 406.619 296.982 412.411 308 414.642C320.659 417.206 335.591 413.838 342.5 402.906L342.6 402.86C340.768 398.097 339.413 393.163 338.554 388.132C334.683 365.326 341.026 341.253 354.383 322.369C367.74 303.485 387.73 289.703 409.674 282.369ZM462.915 264.014C442.356 253.995 418.568 245.546 395.863 251.623C382.151 255.292 370.759 263.732 359.75 272.287C358.953 272.907 358.158 273.526 357.364 274.145C347.105 282.145 337.054 289.983 325.369 294.478C317.004 297.635 308.065 298.989 299.14 298.452C290.214 297.916 281.502 295.5 273.575 291.363C269.696 289.305 265.927 286.805 262.135 284.179C261.182 283.519 260.225 282.849 259.264 282.177L259.264 282.177C256.429 280.194 253.564 278.189 250.673 276.345C242.92 271.4 234.633 267.374 225.116 267.527C213.397 267.714 203.29 274.339 193.734 280.603L192.994 281.088C183.015 287.624 173.587 293.593 162.804 293.218C161.852 293.185 161.054 293.93 161.021 294.882C160.988 295.834 161.732 296.632 162.684 296.665C174.743 297.084 185.087 290.39 194.883 283.973L195.234 283.744C205.105 277.277 214.464 271.146 225.172 270.975H225.172C233.656 270.839 241.233 274.415 248.818 279.253C251.642 281.054 254.419 282.997 257.236 284.968L257.237 284.969C258.21 285.649 259.187 286.333 260.172 287.015C263.987 289.656 267.895 292.254 271.964 294.412L271.974 294.418C280.333 298.781 289.52 301.329 298.933 301.895C308.345 302.461 317.771 301.032 326.593 297.702L326.603 297.698C338.792 293.011 349.237 284.861 359.408 276.926C360.229 276.285 361.048 275.646 361.866 275.011C372.912 266.427 383.801 258.421 396.755 254.955C418.151 249.228 440.922 257.133 461.404 267.114C462.26 267.531 463.292 267.175 463.709 266.319C464.127 265.463 463.771 264.431 462.915 264.014Z" fill="white"/>
<path fill-rule="evenodd" clip-rule="evenodd" d="M530.425 398.391C515.337 370.494 500.035 342.199 483.7 314.8C500.944 315.245 517.945 315.245 534.983 315.198L535.362 315.382L542.443 300.438L580.584 298.818L568.859 315.278L569.146 315.478C584.365 315.248 600.309 315.317 615.735 315.857L551.635 436.486C548.162 431.243 545.619 426.252 543.187 421.479C541.072 417.327 539.041 413.341 536.554 409.496L536.508 409.461L522.691 426.485L532.576 402.15L532.427 402.093C531.76 400.86 531.093 399.626 530.425 398.391ZM473.389 331.617C473.48 341.33 473.733 351.112 474.147 360.895L474.149 360.892C474.348 365.658 474.584 370.41 474.857 375.146C475.401 384.517 476.075 393.836 476.88 403.102L476.914 403.309C479.601 402.896 482.312 402.666 485.03 402.62C489.839 402.459 494.611 403.515 498.904 405.689C500.835 406.735 502.824 408.632 502.318 410.77C502.122 411.394 501.774 411.958 501.304 412.412C500.834 412.867 500.258 413.196 499.628 413.37C498.365 413.7 497.056 413.813 495.755 413.704C495.68 413.704 495.608 413.701 495.536 413.698C495.464 413.695 495.392 413.692 495.318 413.692C496.098 413.79 496.849 414.05 497.522 414.456C498.195 414.862 498.776 415.405 499.226 416.049C499.822 416.977 500.142 418.055 500.15 419.158C500.158 420.26 499.854 421.343 499.272 422.279C497.973 424.319 495.628 425.25 493.214 425.779C496.479 425.606 499.111 429.664 497.64 432.584C496.295 435.239 492.915 435.986 489.961 436.377C486.306 436.86 482.65 437.262 478.972 437.572L478.995 437.86C479.25 443.984 479.51 450.114 479.777 456.252H479.822C521.131 454.95 562.437 454.563 603.739 455.091C604.337 451.481 605.015 447.872 605.773 444.286L605.681 443.837C597.877 445.219 589.876 445.043 582.14 443.32C580.404 442.929 578.53 442.354 577.576 440.849C576.484 439.147 577.036 436.768 578.369 435.239C579.556 433.988 581.021 433.035 582.645 432.457C581.677 432.343 580.71 432.216 579.745 432.078C577.974 431.813 575.951 431.321 575.124 429.721C574.262 428.055 575.147 426.008 576.319 424.537C578.255 422.136 580.91 420.419 583.894 419.637C583.197 419.559 582.511 419.405 581.848 419.177C579.561 418.405 577.515 416.419 577.434 414.005C577.45 413.129 577.667 412.267 578.068 411.487C578.468 410.707 579.042 410.029 579.745 409.505C581.161 408.478 582.792 407.786 584.515 407.482C588.151 406.708 591.962 406.797 595.747 406.885C601.284 407.015 606.764 407.143 611.551 404.562H611.62C613.325 397.635 615.023 390.711 616.713 383.791C621.634 363.696 626.562 343.596 631.495 323.491L632.346 323.698C648.524 322.422 665.365 321.238 680.446 327.238C688.286 330.353 695.861 336.062 697.861 344.262C699.562 351.251 696.781 358.78 692.068 364.206C687.355 369.632 680.917 373.276 674.388 376.287C657.858 383.89 639.974 388.111 621.788 388.702L621.317 388.783C621.33 388.82 621.338 388.859 621.34 388.898L621.777 389.162C621.85 405.6 621.926 422.038 622.006 438.476L622.041 445.959L622.282 446.559C649.284 449.388 677.827 449.959 702.127 437.859C728.485 424.732 746.291 397.773 752.866 369.073C757.085 350.623 756.834 330.162 746.934 314.011C735.562 295.459 713.875 286.021 692.862 280.343C669.746 274.089 645.885 271.01 621.938 271.193C622.149 276.563 620.321 281.814 616.822 285.893C614.093 288.881 610.629 291.103 606.776 292.339C602.923 293.575 598.813 293.782 594.855 292.939C589.962 291.948 585.586 289.236 582.521 285.295C581.028 283.426 579.997 281.23 579.511 278.887C579.026 276.544 579.1 274.12 579.728 271.811L579.67 271.742C577.567 273.501 574.509 274.237 571.934 274.593C555.091 276.853 538.127 278.105 521.134 278.34C519.003 278.478 516.864 278.32 514.777 277.869C514.691 277.847 514.607 277.821 514.524 277.789C511.959 284.954 506.713 290.843 499.891 294.215C493.063 297.388 484.591 297.238 478.246 293.169C471.981 289.146 468.257 281.214 469.82 273.938C449.324 274.363 429.013 275.915 409.667 282.375C387.723 289.706 367.722 303.477 354.376 322.375C341.03 341.273 334.673 365.332 338.547 388.138C339.406 393.168 340.762 398.101 342.593 402.863C349.088 419.726 361.434 434.359 377.515 442.521C400.275 454.085 427.748 451.97 453.187 449.728C454.421 445.985 455.601 442.222 456.727 438.44C461.268 423.325 464.971 407.971 467.82 392.448C455.727 391.433 443.634 390.425 431.542 389.425C422.416 388.655 412.842 387.747 405.242 382.62C400.674 379.495 397.166 375.052 395.184 369.884C394.285 367.593 393.716 365.186 393.494 362.734C393.164 358.757 393.709 354.757 395.091 351.013C396.473 347.27 398.659 343.874 401.494 341.066C405.94 336.721 411.805 334.031 417.84 332.548C423.919 331.234 430.121 330.571 436.34 330.571C448.7 330.235 461.068 330.584 473.389 331.617ZM720.327 295.818C719.548 295.27 718.472 295.458 717.925 296.238C717.377 297.017 717.565 298.092 718.345 298.64C729.65 306.584 737.661 318.387 740.868 331.827C744.075 345.267 742.257 359.415 735.756 371.608C735.308 372.448 735.626 373.493 736.467 373.941C737.307 374.389 738.352 374.071 738.8 373.23C745.696 360.295 747.625 345.285 744.223 331.026C740.82 316.768 732.322 304.245 720.327 295.818Z" fill="#171717"/>
<path fill-rule="evenodd" clip-rule="evenodd" d="M575.078 519.622C586.494 512.809 599.271 508.596 612.5 507.281C609.233 496.341 605.71 485.486 601.93 474.715V474.554H601.78L601.297 475.141C601.302 475.048 601.311 474.959 601.319 474.87C601.328 474.771 601.337 474.671 601.343 474.566C561.049 475.321 520.775 475.106 480.519 473.922C480.358 473.911 480.209 473.911 480.048 473.911H480.048C475.982 480.298 472.22 486.785 468.76 493.372C484.668 494.84 499.927 500.391 513.06 509.488C526.538 518.724 537.447 531.235 544.76 545.846L544.817 545.938L546.392 546.203C546.404 546.364 546.415 546.536 546.427 546.697H546.45C553.888 535.679 563.662 526.434 575.078 519.622ZM596.578 483.096C596.327 482.177 595.379 481.635 594.461 481.886C593.542 482.136 593 483.084 593.25 484.003C594.872 489.954 596.495 495.904 598.118 501.854C598.369 502.773 599.317 503.315 600.236 503.064C601.155 502.813 601.696 501.865 601.446 500.946C599.822 494.997 598.2 489.046 596.578 483.096Z" fill="white"/>
<path fill-rule="evenodd" clip-rule="evenodd" d="M546.43 546.7C550.721 604.979 555.005 663.258 559.281 721.536C561.577 752.7 563.867 783.863 566.151 815.025C566.446 819.125 566.749 823.222 567.059 827.314C569.864 827.295 572.692 827.245 575.543 827.164C584.233 826.951 593.084 826.556 601.934 826.16C613.593 825.64 625.249 825.119 636.535 825.015C637.009 821.777 637.446 818.531 637.846 815.278C641.771 784.554 643.76 753.614 643.8 722.64C643.925 649.713 633.381 577.159 612.503 507.284C599.274 508.599 586.497 512.812 575.081 519.625C563.665 526.438 553.891 535.682 546.453 546.7H546.43ZM617.934 569.787C617.724 568.858 616.8 568.276 615.871 568.486C614.942 568.696 614.36 569.62 614.57 570.549C628.697 632.964 633.46 697.133 628.704 760.95C628.633 761.9 629.346 762.727 630.296 762.798C631.246 762.868 632.073 762.156 632.144 761.206C636.925 697.048 632.136 632.536 617.934 569.787Z" fill="#171717"/>
<path d="M849.22 814.946V815.072C842.61 815.107 835.989 815.118 829.345 815.141V686.341L849.22 693.241V814.946Z" fill="#171717"/>
<path d="M781.285 523.409C787.185 526.777 787.94 536.409 782.629 540.64C779.411 543.215 775.043 543.652 770.951 543.985C753.618 545.411 736.285 546.832 718.951 548.25C713.859 548.664 707.351 550.71 703.502 546.526C699.697 542.376 700.283 534.536 704.031 530.64C708.881 525.616 718.284 526.317 722.331 532.007C720.704 529.363 719.909 526.292 720.048 523.19C720.187 520.089 721.255 517.102 723.112 514.615C725.069 512.206 727.753 510.493 730.762 509.733C733.771 508.973 736.946 509.206 739.812 510.397C741.997 511.444 743.864 513.054 745.22 515.063C746.575 517.071 747.371 519.404 747.525 521.823C747.002 523.071 746.858 524.446 747.111 525.777C747.471 524.491 747.611 523.154 747.525 521.823C749.18 517.696 754.399 514.811 758.859 516.213C764.112 517.869 767.066 523.995 766.17 529.444C765.996 529.968 765.869 530.506 765.79 531.053C765.962 530.528 766.089 529.99 766.17 529.444C768.123 523.674 775.87 520.328 781.285 523.409Z" fill="white"/>
<path d="M759.973 814.738V815.29C750.984 815.301 741.991 815.309 732.994 815.313V683.5H759.973V814.738Z" fill="#171717"/>
<path d="M732.994 814.739V815.314C725.488 815.314 717.981 815.317 710.475 815.325V757.125H671.519V815.313C660.265 815.313 649.042 815.301 637.85 815.278C641.774 784.554 643.761 753.614 643.8 722.641H662.2V744.55H704.8V720.008H733L732.994 814.739Z" fill="white"/>
<path d="M615.733 315.854L551.633 436.483C545.138 426.678 541.897 417.757 536.552 409.493L536.506 409.458L599.506 331.809L555.147 334.522L568.847 315.279L569.134 315.479C584.363 315.245 600.307 315.314 615.733 315.854Z" fill="white"/>
<path d="M554.879 347.237L532.579 402.148L532.43 402.091C516.692 373.001 500.76 343.409 483.7 314.801C500.943 315.249 517.944 315.249 534.98 315.201L535.359 315.385L518.1 351.835L554.879 347.237Z" fill="white"/>
<path d="M516.68 743.745C519.192 767.787 523.592 791.594 529.842 814.945C530.636 817.878 531.452 820.806 532.29 823.727L532.485 823.98C529.209 826.543 525.826 828.949 522.335 831.199C505.599 841.989 486.779 849.136 467.099 852.177C462.351 852.913 457.144 853.269 452.718 851.777C451.011 851.228 449.426 850.353 448.051 849.202C443.718 845.535 442.361 839.523 441.292 833.937C440.086 827.614 438.948 821.28 437.878 814.937C436.384 806.098 435.028 797.232 433.809 788.337C427.533 742.288 425.222 695.721 428.843 649.431C433.085 595.221 443.258 541.731 468.754 493.375C484.663 494.842 499.922 500.394 513.054 509.491C526.533 518.727 537.442 531.238 544.754 545.85L544.811 545.941C532.311 565.081 526.236 587.668 522.017 610.141C513.788 654.183 511.99 699.187 516.68 743.745V743.745Z" fill="#171717"/>
<path d="M537.099 234.86C535.991 233.849 535.163 232.568 534.695 231.142C534.228 229.716 534.137 228.194 534.432 226.722C535.081 223.771 536.78 221.156 539.215 219.365C540.53 221.254 542.041 222.999 543.721 224.572L543.434 224.883C541.667 226.019 540.309 227.691 539.56 229.653C538.812 231.616 538.71 233.767 539.271 235.791L538.629 235.826C538.077 235.576 537.562 235.251 537.099 234.86V234.86Z" fill="#171717"/>
<path d="M494.76 277.139C491.208 275.851 485.667 279.955 486.368 283.818C486.58 284.613 486.988 285.341 487.555 285.937C488.121 286.534 488.827 286.979 489.61 287.232C490.537 287.596 491.533 287.753 492.527 287.694C493.522 287.634 494.491 287.359 495.369 286.887C499.116 284.737 499.024 278.691 494.76 277.139ZM469.827 273.932C482.927 273.656 496.127 273.84 509.175 273.495L509.324 273.449C509.429 273.731 509.555 274.003 509.703 274.265C510.792 276.022 512.524 277.285 514.531 277.783C511.966 284.947 506.721 290.836 499.9 294.209C493.072 297.382 484.6 297.232 478.255 293.163C471.988 289.14 468.264 281.208 469.827 273.932Z" fill="white"/>
<path d="M473.391 331.614C473.482 341.327 473.735 351.114 474.149 360.892C468.781 366.812 459.539 367.628 451.642 365.992C443.561 364.337 435.974 360.647 427.813 359.486C421.945 358.694 415.974 359.215 410.332 361.012C404.691 362.81 399.518 365.838 395.19 369.878C394.29 367.587 393.721 365.18 393.5 362.728C393.17 358.751 393.715 354.75 395.097 351.007C396.479 347.263 398.665 343.868 401.5 341.06C405.948 336.715 411.811 334.025 417.846 332.542C423.925 331.228 430.127 330.565 436.346 330.565C448.704 330.23 461.071 330.581 473.391 331.614V331.614Z" fill="white"/>
<path d="M370.292 814.336V815.083C357.705 815.117 345.126 815.136 332.554 815.14V635.416L370.292 647.991V814.336Z" fill="#171717"/>
<path d="M319.127 131.807C322.013 143.739 316.327 156.625 307.027 164.626C297.727 172.627 285.382 176.305 273.174 177.569C260.966 178.833 248.667 177.879 236.39 177.73C221.665 177.558 206.963 178.523 192.295 179.707C166.295 181.799 140.2 184.696 114.095 183.098C109.704 182.834 100.002 183.661 96.4273 180.914C91.6453 177.236 95.3923 174.764 99.3123 173.214C106.002 170.582 128.012 165.697 134.165 171.306C126.417 164.237 127.325 149.972 135.889 143.925C143.258 138.741 154.419 140.936 159.994 147.787C160.676 149.077 161.428 150.328 162.247 151.535C161.68 150.184 160.922 148.922 159.994 147.787C155.017 138.362 153.794 126.855 157.994 117.107C162.753 106.026 175.041 98.1862 186.962 100.06C198.883 101.934 208.48 114.498 205.813 126.269C208.549 112.716 211.492 98.7042 219.596 87.5192C227.7 76.3342 242.528 68.7482 255.564 73.3462C267.07 77.4032 273.956 89.7842 275.164 101.934C276.372 114.084 272.98 126.142 269.635 137.879C274.267 127.614 280.612 116.532 291.51 113.67C303.368 110.553 316.242 119.887 319.127 131.807Z" fill="#171717"/>
<path d="M288.735 814.738V815.186C281.435 815.186 274.135 815.19 266.835 815.198V814.738L263.179 674.775L288.733 682.764V814.738H288.735Z" fill="#171717"/>
<path d="M248.985 815.152V815.198C221.477 815.198 193.977 815.179 166.485 815.14V775.391H129.7V815.083C115.538 815.06 101.384 815.029 87.2373 814.991V802.7H115.906V762.941H137.551V712.9H168.645V741.58H194.888V715.341H221.12V736.986H248.984L248.985 815.152Z" fill="white"/>
<path d="M166.485 814.877V815.141C154.219 815.13 141.957 815.111 129.701 815.084V775.392H166.485V814.877Z" fill="#171717"/>
<path d="M512.474 155.258C514.81 174.613 513.85 194.224 509.634 213.258C508.657 217.638 507.45 222.063 505.002 225.822C502.554 229.581 498.657 232.65 494.185 233.053" stroke="#171717" stroke-width="3.449" stroke-linecap="round" stroke-linejoin="round"/>
<path d="M493.541 233.206C493.725 233.263 493.898 233.321 494.081 233.378C499.958 235.231 506.282 235.09 512.071 232.978C517.934 230.794 522.671 225.966 525.854 220.578L525.923 220.478" stroke="#171717" stroke-width="3.449" stroke-linecap="round" stroke-linejoin="round"/>
<path d="M512.07 155.085C512.197 155.073 512.335 155.062 512.461 155.062C528.198 153.924 543.931 152.791 559.661 151.662C563.396 151.398 567.305 151.062 570.443 149.03C574.397 146.467 576.305 141.73 577.489 137.167C578.708 132.443 577.501 123.143 582.375 123.467C586.904 123.754 586.421 140.491 582.513 148.25C582.478 148.319 582.455 148.377 582.421 148.434" stroke="#171717" stroke-width="3.449" stroke-linecap="round" stroke-linejoin="round"/>
<path d="M582.432 148.337C582.455 148.303 582.49 148.28 582.513 148.245C589.216 140.591 593.815 131.326 595.858 121.358C595.944 120.574 596.199 119.817 596.606 119.14C596.817 118.805 597.134 118.55 597.507 118.417C597.88 118.284 598.287 118.279 598.663 118.404C599.117 118.664 599.467 119.075 599.652 119.565C601.352 123.048 600.752 127.186 599.801 130.934C597.778 138.834 594.617 146.934 589.847 153.544" stroke="#171717" stroke-width="3.449" stroke-linecap="round" stroke-linejoin="round"/>
<path d="M589.788 153.787C589.834 153.729 589.888 153.687 589.938 153.626C595.834 147.166 601.734 140.702 607.638 134.234C607.996 133.776 608.457 133.409 608.983 133.165C610.316 132.682 611.742 133.992 611.937 135.395C612.001 136.815 611.624 138.221 610.856 139.418C604.511 151.879 595.809 164.063 582.97 169.604C582.57 169.776 582.17 169.949 581.763 170.098C566.52 176.098 549.025 172.018 532.84 175.053C531.616 175.148 530.466 175.678 529.598 176.547C529.018 177.463 528.722 178.531 528.748 179.616C527.815 193.226 526.872 206.84 525.92 220.458V220.469C525.908 220.561 525.908 220.642 525.897 220.734" stroke="#171717" stroke-width="3.449" stroke-linecap="round" stroke-linejoin="round"/>
<path d="M581.766 170.063V170.097C581.708 181.949 581.651 193.801 581.593 205.651C581.559 211.364 581.524 217.123 580.283 222.698C579.042 228.273 576.455 233.698 572.098 237.398C568.822 240.168 564.626 241.915 562.029 245.318C561.63 245.839 561.276 246.392 560.971 246.973H560.959C559.293 250.436 558.828 254.356 559.638 258.112" stroke="#171717" stroke-width="3.449" stroke-linecap="round" stroke-linejoin="round"/>
<path d="M525.853 220.435V220.573C525.753 228.688 525.577 236.781 525.439 244.885C525.358 249.285 525.278 253.702 525.232 258.116" stroke="#171717" stroke-width="3.449" stroke-linecap="round" stroke-linejoin="round"/>
<path d="M579.673 271.736C580.712 270.893 581.477 269.761 581.873 268.483C582.93 265.058 579.861 261.126 576.93 259.735C574.217 258.46 571.114 258.391 568.113 258.345C565.286 258.299 562.469 258.253 559.642 258.218C551.538 258.08 543.438 257.954 535.342 257.839C531.972 257.706 528.597 257.81 525.242 258.149C524.242 258.263 523.248 258.428 522.265 258.643C517.989 259.586 513.804 261.643 511.126 265.115C509.31 267.46 508.31 270.736 509.333 273.449C509.438 273.731 509.565 274.004 509.712 274.265C510.801 276.023 512.534 277.285 514.54 277.783C514.623 277.815 514.707 277.841 514.793 277.863C516.88 278.314 519.019 278.472 521.15 278.334C538.143 278.099 555.106 276.847 571.95 274.587C574.512 274.231 577.57 273.5 579.673 271.736Z" stroke="#171717" stroke-width="3.449" stroke-linecap="round" stroke-linejoin="round"/>
<path d="M509.175 273.5C496.128 273.845 482.931 273.661 469.827 273.937C449.327 274.362 429.02 275.914 409.674 282.374C387.73 289.708 367.74 303.49 354.383 322.374C341.026 341.258 334.683 365.331 338.554 388.137C339.413 393.166 340.768 398.098 342.6 402.86C349.1 419.723 361.441 434.36 377.522 442.518C400.282 454.082 427.755 451.967 453.194 449.725C453.274 449.714 453.355 449.714 453.435 449.702" stroke="#171717" stroke-width="3.449" stroke-linecap="round" stroke-linejoin="round"/>
<path d="M453.079 450.059C453.113 449.945 453.148 449.841 453.194 449.726C454.424 445.979 455.604 442.216 456.734 438.438C461.275 423.323 464.978 407.969 467.827 392.446C467.836 392.432 467.84 392.416 467.838 392.4C467.861 392.3 467.873 392.205 467.896 392.1" stroke="#171717" stroke-width="3.449" stroke-linecap="round" stroke-linejoin="round"/>
<path d="M468.068 392.468C467.988 392.457 467.907 392.457 467.827 392.445C455.734 391.445 443.642 390.437 431.549 389.422C422.422 388.652 412.849 387.744 405.249 382.617C400.681 379.491 397.173 375.049 395.191 369.881C394.291 367.59 393.722 365.182 393.501 362.731C393.171 358.754 393.716 354.753 395.098 351.01C396.48 347.266 398.666 343.871 401.501 341.063C405.949 336.718 411.812 334.028 417.847 332.545C423.926 331.231 430.128 330.568 436.347 330.568C448.706 330.232 461.075 330.581 473.396 331.614C473.515 331.616 473.634 331.623 473.752 331.637" stroke="#171717" stroke-width="3.449" stroke-linecap="round" stroke-linejoin="round"/>
<path d="M473.391 331.27V331.615C473.482 341.328 473.735 351.115 474.149 360.893C474.345 365.652 474.582 370.403 474.862 375.146C475.402 384.503 476.076 393.822 476.885 403.102" stroke="#171717" stroke-width="3.449" stroke-linecap="round" stroke-linejoin="round"/>
<path d="M479 437.852C479.267 443.979 479.527 450.11 479.782 456.244C480.023 462.094 480.268 467.949 480.517 473.808" stroke="#171717" stroke-width="3.449" stroke-linecap="round" stroke-linejoin="round"/>
<path d="M621.837 271.185H621.937C645.884 271.003 669.744 274.081 692.861 280.335C713.874 286.013 735.561 295.45 746.933 314.003C756.833 330.154 757.084 350.615 752.865 369.065C746.29 397.765 728.484 424.723 702.126 437.851C677.826 449.951 649.283 449.38 622.281 446.551" stroke="#171717" stroke-width="3.449" stroke-linecap="round" stroke-linejoin="round"/>
<path d="M622.044 445.955L622.01 438.471C621.93 422.034 621.853 405.596 621.78 389.158" stroke="#171717" stroke-width="3.449" stroke-linecap="round" stroke-linejoin="round"/>
<path d="M621.791 388.7C639.977 388.109 657.86 383.888 674.391 376.285C680.921 373.274 687.358 369.63 692.071 364.204C696.784 358.778 699.565 351.249 697.864 344.26C695.864 336.06 688.289 330.351 680.449 327.236C665.368 321.236 648.528 322.42 632.349 323.696" stroke="#171717" stroke-width="3.449" stroke-linecap="round" stroke-linejoin="round"/>
<path d="M631.539 323.326C631.527 323.383 631.516 323.426 631.504 323.487C626.571 343.592 621.643 363.692 616.722 383.787C615.032 390.707 613.335 397.631 611.63 404.558" stroke="#171717" stroke-width="3.449" stroke-linecap="round" stroke-linejoin="round"/>
<path d="M605.779 444.276C605.019 447.863 604.341 451.465 603.744 455.082C602.677 461.542 601.877 468.037 601.344 474.566C601.333 474.766 601.31 474.945 601.299 475.141C601.459 474.941 601.62 474.75 601.781 474.554L601.954 474.347" stroke="#171717" stroke-width="3.449" stroke-linecap="round" stroke-linejoin="round"/>
<path d="M479.815 473.9C479.892 473.898 479.969 473.902 480.045 473.912C480.206 473.912 480.355 473.912 480.516 473.923C520.772 475.107 561.047 475.322 601.34 474.567C601.49 474.567 601.628 474.567 601.777 474.555H601.938" stroke="#171717" stroke-width="3.449" stroke-linecap="round" stroke-linejoin="round"/>
<path d="M479.828 456.243C521.118 454.944 562.423 454.557 603.744 455.082H603.974" stroke="#171717" stroke-width="3.449" stroke-linecap="round" stroke-linejoin="round"/>
<path d="M528.888 472.094C528.957 472.083 529.038 472.083 529.107 472.071C536.331 471.303 543.614 471.277 550.844 471.991C550.924 472.002 551.005 472.002 551.085 472.014" stroke="#171717" stroke-width="3.449" stroke-linecap="round" stroke-linejoin="round"/>
<path d="M529.187 458.956C529.406 458.956 529.636 458.944 529.854 458.944C537.429 458.818 545.016 459.094 552.58 459.726" stroke="#171717" stroke-width="3.449" stroke-linecap="round" stroke-linejoin="round"/>
<path d="M550.854 471.922C551.326 467.945 551.913 463.967 552.603 460.022" stroke="#171717" stroke-width="3.449" stroke-linecap="round" stroke-linejoin="round"/>
<path d="M529.106 472.061C529.347 467.681 529.6 463.325 529.853 458.945V458.934" stroke="#171717" stroke-width="3.449" stroke-linecap="round" stroke-linejoin="round"/>
<path d="M469.885 273.667C469.862 273.759 469.85 273.84 469.827 273.932C468.264 281.208 471.988 289.14 478.253 293.163C484.598 297.232 493.07 297.382 499.898 294.209C506.72 290.837 511.966 284.948 514.531 277.783C514.543 277.76 514.543 277.748 514.554 277.725" stroke="#171717" stroke-width="3.449" stroke-linecap="round" stroke-linejoin="round"/>
<path d="M579.731 271.805C579.103 274.114 579.029 276.539 579.514 278.882C579.999 281.225 581.031 283.42 582.524 285.289C585.589 289.23 589.965 291.942 594.858 292.933C598.816 293.776 602.925 293.569 606.779 292.333C610.632 291.097 614.095 288.875 616.825 285.887C620.324 281.809 622.152 276.557 621.941 271.187C621.863 268.448 621.192 265.758 619.975 263.302C617.53 258.714 613.701 255.013 609.032 252.726C604.387 250.459 599.426 248.905 594.318 248.117C583.369 246.127 572.185 245.774 561.132 247.071" stroke="#171717" stroke-width="3.449" stroke-linecap="round" stroke-linejoin="round"/>
<path d="M596.318 280.381C596.697 281.91 597.614 283.252 598.902 284.159C600.19 285.067 601.762 285.48 603.33 285.323C604.887 285.077 606.316 284.314 607.386 283.157C608.457 282 609.106 280.515 609.23 278.944C609.79 269.989 594.651 272.07 596.318 280.381Z" stroke="#171717" stroke-width="3.449" stroke-linecap="round" stroke-linejoin="round"/>
<path d="M486.368 283.819C486.581 284.613 486.989 285.342 487.555 285.938C488.121 286.534 488.828 286.979 489.61 287.233C490.538 287.596 491.533 287.754 492.528 287.694C493.522 287.635 494.492 287.359 495.369 286.888C499.116 284.738 499.024 278.688 494.76 277.14C491.208 275.852 485.667 279.956 486.368 283.819Z" stroke="#171717" stroke-width="3.449" stroke-linecap="round" stroke-linejoin="round"/>
<path d="M621.343 388.893C621.34 388.854 621.333 388.816 621.32 388.779C621.136 387.704 620.677 386.695 619.988 385.849C619.3 385.003 618.404 384.349 617.389 383.951" stroke="#171717" stroke-width="3.449" stroke-linecap="round" stroke-linejoin="round"/>
<path d="M611.56 404.562C603.502 408.907 593.478 405.574 584.523 407.482C582.801 407.786 581.17 408.477 579.753 409.505C579.05 410.028 578.476 410.706 578.076 411.486C577.675 412.266 577.459 413.128 577.442 414.005C577.523 416.419 579.569 418.405 581.856 419.177C582.52 419.405 583.206 419.559 583.903 419.637C585.608 419.802 587.326 419.794 589.029 419.614C596.949 419.014 604.87 418.424 612.79 417.844" stroke="#171717" stroke-width="3.449" stroke-linecap="round" stroke-linejoin="round"/>
<path d="M584.891 419.413C584.558 419.47 584.224 419.551 583.903 419.631C580.919 420.412 578.264 422.13 576.327 424.531C575.155 426.002 574.27 428.049 575.132 429.715C575.96 431.315 577.983 431.807 579.753 432.072C580.719 432.21 581.686 432.336 582.653 432.451C592.068 433.508 601.594 432.992 610.839 430.922" stroke="#171717" stroke-width="3.449" stroke-linecap="round" stroke-linejoin="round"/>
<path d="M583.524 432.101C583.237 432.216 582.938 432.331 582.651 432.446C581.026 433.023 579.561 433.977 578.375 435.228C577.041 436.757 576.489 439.136 577.581 440.837C578.535 442.343 580.409 442.918 582.145 443.309C595.596 446.291 609.663 444.584 622.01 438.47L622.216 438.37" stroke="#171717" stroke-width="3.449" stroke-linecap="round" stroke-linejoin="round"/>
<path d="M467.814 392.4C468.157 388.24 468.896 384.121 470.021 380.1C470.287 378.911 470.771 377.78 471.447 376.766C471.792 376.264 472.256 375.855 472.796 375.575C473.337 375.294 473.938 375.151 474.547 375.157" stroke="#171717" stroke-width="3.449" stroke-linecap="round" stroke-linejoin="round"/>
<path d="M470.781 404.332C472.816 403.964 474.862 403.608 476.919 403.309C479.605 402.895 482.317 402.665 485.035 402.62C489.844 402.458 494.616 403.514 498.909 405.689C500.841 406.735 502.829 408.631 502.323 410.77C502.127 411.393 501.779 411.957 501.309 412.412C500.839 412.866 500.264 413.195 499.634 413.37C498.371 413.699 497.061 413.812 495.76 413.704C495.61 413.704 495.472 413.692 495.323 413.692L493.875 413.658C485.828 413.439 477.759 413.232 469.712 413.014" stroke="#171717" stroke-width="3.449" stroke-linecap="round" stroke-linejoin="round"/>
<path d="M493.449 413.7C493.589 413.673 493.731 413.658 493.875 413.654C494.356 413.597 494.844 413.608 495.323 413.688C496.103 413.786 496.853 414.046 497.527 414.452C498.2 414.858 498.78 415.401 499.23 416.045C499.826 416.973 500.146 418.051 500.155 419.154C500.163 420.256 499.858 421.339 499.277 422.275C497.977 424.31 495.633 425.241 493.219 425.769C492.553 425.919 491.874 426.034 491.208 426.126C483.494 427.288 475.676 427.59 467.896 427.026" stroke="#171717" stroke-width="3.449" stroke-linecap="round" stroke-linejoin="round"/>
<path d="M493.219 425.769C496.484 425.597 499.119 429.655 497.645 432.575C496.3 435.23 492.921 435.975 489.966 436.368C486.311 436.851 482.655 437.253 478.977 437.563C471.586 438.207 464.172 438.498 456.734 438.437H456.516" stroke="#171717" stroke-width="3.449" stroke-linecap="round" stroke-linejoin="round"/>
<path d="M524.45 244.861C514.23 251.787 502.515 256.195 490.264 257.725C478.013 259.256 465.574 257.865 453.963 253.666C439.203 248.166 425.8 238.079 410.098 236.803C391.005 235.251 373.67 247.033 358.267 258.413C342.864 269.793 325.874 281.886 306.735 281.07C281.859 280.013 261.973 257.379 237.121 255.781C218.671 254.597 201.843 265.181 185.186 273.219C168.529 281.257 148.08 286.933 132.861 276.419" stroke="#171717" stroke-width="3.449" stroke-linecap="round" stroke-linejoin="round"/>
<path d="M474.517 360.489C474.403 360.631 474.28 360.764 474.149 360.889C468.781 366.809 459.539 367.625 451.642 365.989C443.561 364.334 435.974 360.644 427.813 359.483C421.945 358.691 415.974 359.212 410.332 361.01C404.69 362.807 399.518 365.835 395.19 369.875C395.132 369.932 395.063 369.99 395.006 370.047" stroke="#171717" stroke-width="3.449" stroke-linecap="round" stroke-linejoin="round"/>
<path d="M342.5 402.906C335.591 413.838 320.659 417.206 308 414.642C295.341 412.078 284.217 404.814 273.021 398.342C261.825 391.87 249.594 385.928 236.685 386.411C222.017 386.951 208.948 395.711 198.004 405.481C187.06 415.251 177.164 426.481 164.485 433.862C149.53 442.562 131.471 445.254 114.332 442.92C97.193 440.586 80.932 433.42 66.582 423.746" stroke="#171717" stroke-width="3.449" stroke-linecap="round" stroke-linejoin="round"/>
<path d="M66.6045 423.585C87.6285 374.157 109.641 325.166 132.643 276.61" stroke="#171717" stroke-width="3.449" stroke-linecap="round" stroke-linejoin="round"/>
<path d="M601.928 474.715C605.71 485.486 609.235 496.341 612.503 507.281C633.381 577.157 643.925 649.711 643.8 722.64C643.76 753.613 641.771 784.554 637.846 815.278C637.446 818.531 637.009 821.776 636.535 825.014V825.083C636.501 825.325 636.466 825.555 636.435 825.796" stroke="#171717" stroke-width="3.449" stroke-linecap="round" stroke-linejoin="round"/>
<path d="M480.099 473.808C480.076 473.839 480.057 473.872 480.041 473.908C475.975 480.287 472.212 486.774 468.753 493.369C443.253 541.728 433.084 595.215 428.842 649.425C425.221 695.716 427.532 742.282 433.808 788.331C435.027 797.216 436.383 806.083 437.877 814.931C438.944 821.277 440.082 827.61 441.291 833.931C442.36 839.517 443.717 845.531 448.05 849.196C449.425 850.347 451.01 851.221 452.717 851.771C457.143 853.265 462.35 852.909 467.098 852.171C486.778 849.132 505.598 841.988 522.335 831.201C525.831 828.948 529.214 826.542 532.485 823.982C532.554 823.936 532.635 823.882 532.704 823.821" stroke="#171717" stroke-width="3.449" stroke-linecap="round" stroke-linejoin="round"/>
<path d="M544.819 545.938C532.319 565.078 526.244 587.665 522.025 610.138C509.327 678.136 511.997 748.113 529.841 814.945C530.635 817.879 531.452 820.806 532.29 823.727" stroke="#171717" stroke-width="3.449" stroke-linecap="round" stroke-linejoin="round"/>
<path d="M636.562 825.016H636.539C616.687 825.199 595.686 826.671 575.547 827.165C572.696 827.245 569.868 827.295 567.063 827.315H567.052" stroke="#171717" stroke-width="3.449" stroke-linecap="round" stroke-linejoin="round"/>
<path d="M567.086 827.681C567.075 827.555 567.062 827.44 567.062 827.313C566.752 823.221 566.454 819.113 566.155 815.025C563.868 783.862 561.577 752.699 559.281 721.536C555.005 663.257 550.721 604.979 546.43 546.7C546.418 546.539 546.407 546.367 546.395 546.206" stroke="#171717" stroke-width="3.449" stroke-linecap="round" stroke-linejoin="round"/>
<path d="M575.558 827.501C576.42 833.456 575.087 839.491 574.432 845.48C573.777 851.469 573.96 858.032 577.34 862.837C582.03 869.493 590.847 870.286 598.583 870.504L647.115 871.849C655.977 872.102 665.346 872.217 673.07 867.481C676.146 865.513 678.789 862.938 680.837 859.914C682.884 856.89 684.294 853.481 684.979 849.894C686.079 844.273 685.079 837.594 680.738 834.318C678.45 832.594 675.599 832.053 672.852 831.571C671.645 831.352 670.427 831.134 669.22 830.927L647.827 827.101C644.069 826.434 640.298 825.756 636.539 825.089C636.47 825.078 636.413 825.066 636.344 825.055" stroke="#171717" stroke-width="3.449" stroke-linecap="round" stroke-linejoin="round"/>
<path d="M544.763 545.847C537.45 531.236 526.542 518.724 513.063 509.489C499.931 500.391 484.671 494.84 468.763 493.373C468.703 493.359 468.641 493.351 468.579 493.35" stroke="#171717" stroke-width="3.449" stroke-linecap="round" stroke-linejoin="round"/>
<path d="M546.453 546.7C553.891 535.682 563.666 526.437 575.082 519.625C586.498 512.812 599.274 508.599 612.503 507.284L612.871 507.249" stroke="#171717" stroke-width="3.449" stroke-linecap="round" stroke-linejoin="round"/>
<path d="M573.34 182.4L558.44 183.883C559.222 193.309 560.011 202.731 560.808 212.149C560.896 212.655 560.848 213.175 560.67 213.655C560.118 214.816 558.463 214.77 557.233 214.391C556.003 214.012 554.555 213.54 553.555 214.345" stroke="#171717" stroke-width="3.449" stroke-linecap="round" stroke-linejoin="round"/>
<path d="M564.592 193.284C566.661 192.823 568.809 192.847 570.868 193.353" stroke="#171717" stroke-width="3.449" stroke-linecap="round" stroke-linejoin="round"/>
<path d="M547.4 191.742C546.33 191.288 545.174 191.07 544.012 191.102C542.85 191.133 541.708 191.415 540.664 191.926" stroke="#171717" stroke-width="3.449" stroke-linecap="round" stroke-linejoin="round"/>
<path d="M562.143 226C559.043 229.368 553.683 229.9 549.43 228.23C547.317 227.372 545.381 226.133 543.717 224.574C542.037 223.001 540.527 221.256 539.211 219.367C536.776 221.158 535.077 223.773 534.429 226.724C534.134 228.195 534.224 229.718 534.691 231.144C535.159 232.57 535.987 233.851 537.096 234.862C538.245 235.826 539.682 236.379 541.18 236.436C542.679 236.492 544.153 236.048 545.372 235.173" stroke="#171717" stroke-width="3.449" stroke-linecap="round" stroke-linejoin="round"/>
<path d="M539.268 235.792C538.707 233.767 538.808 231.617 539.557 229.654C540.306 227.691 541.663 226.02 543.43 224.884" stroke="#171717" stroke-width="3.449" stroke-linecap="round" stroke-linejoin="round"/>
<path d="M551.637 436.483L615.733 315.854L615.871 315.59" stroke="#171717" stroke-width="3.449" stroke-linecap="round" stroke-linejoin="round"/>
<path d="M569.144 315.476C584.363 315.246 600.307 315.315 615.733 315.855H615.745" stroke="#171717" stroke-width="3.449" stroke-linecap="round" stroke-linejoin="round"/>
<path d="M482.942 314.774C483.195 314.785 483.448 314.785 483.701 314.797C500.943 315.245 517.944 315.245 534.98 315.197" stroke="#171717" stroke-width="3.449" stroke-linecap="round" stroke-linejoin="round"/>
<path d="M532.429 402.091C516.692 373.001 500.76 343.409 483.7 314.801C483.539 314.525 483.366 314.249 483.2 313.973" stroke="#171717" stroke-width="3.449" stroke-linecap="round" stroke-linejoin="round"/>
<path d="M551.637 436.483C545.142 426.678 541.901 417.757 536.556 409.493" stroke="#171717" stroke-width="3.449" stroke-linecap="round" stroke-linejoin="round"/>
<path d="M522.692 426.483L536.509 409.459L599.513 331.81" stroke="#171717" stroke-width="3.449" stroke-linecap="round" stroke-linejoin="round"/>
<path d="M555.155 334.523L599.514 331.81" stroke="#171717" stroke-width="3.449" stroke-linecap="round" stroke-linejoin="round"/>
<path d="M580.582 298.819L568.857 315.279L555.155 334.522" stroke="#171717" stroke-width="3.449" stroke-linecap="round" stroke-linejoin="round"/>
<path d="M542.44 300.439L580.581 298.819" stroke="#171717" stroke-width="3.449" stroke-linecap="round" stroke-linejoin="round"/>
<path d="M518.095 351.834L535.36 315.383L542.441 300.439" stroke="#171717" stroke-width="3.449" stroke-linecap="round" stroke-linejoin="round"/>
<path d="M554.879 347.236L518.095 351.834" stroke="#171717" stroke-width="3.449" stroke-linecap="round" stroke-linejoin="round"/>
<path d="M522.692 426.482L532.577 402.147L554.878 347.236" stroke="#171717" stroke-width="3.449" stroke-linecap="round" stroke-linejoin="round"/>
<path d="M159.99 147.785C160.672 149.075 161.425 150.326 162.243 151.533C161.676 150.182 160.918 148.92 159.99 147.785V147.785Z" stroke="#171717" stroke-width="3.449" stroke-linecap="round" stroke-linejoin="round"/>
<path d="M159.989 147.785C154.414 140.934 143.253 138.739 135.884 143.923C127.32 149.97 126.412 164.235 134.16 171.304C128.01 165.695 105.997 170.58 99.3074 173.212C95.3874 174.764 91.6404 177.236 96.4224 180.912C99.9974 183.659 109.699 182.832 114.09 183.096C140.195 184.696 166.29 181.796 192.29 179.705C206.958 178.521 221.66 177.556 236.39 177.728C248.667 177.877 260.967 178.828 273.174 177.567C285.381 176.306 297.716 172.624 307.027 164.624C316.338 156.624 322.017 143.737 319.127 131.805C316.237 119.873 303.368 110.551 291.505 113.666C280.605 116.529 274.262 127.61 269.63 137.875C272.975 126.138 276.366 114.069 275.159 101.93C273.952 89.7911 267.066 77.3991 255.559 73.3421C242.524 68.7421 227.706 76.3301 219.591 87.5151C211.476 98.7001 208.544 112.715 205.808 126.265C208.475 114.494 198.877 101.93 186.957 100.056C175.037 98.1821 162.748 106.022 157.989 117.103C153.793 126.853 155.012 138.36 159.989 147.785Z" stroke="#171717" stroke-width="3.449" stroke-linecap="round" stroke-linejoin="round"/>
<path d="M766.008 123.359V123.278C766.01 123.017 765.994 122.755 765.962 122.496" stroke="#171717" stroke-width="3.449" stroke-linecap="round" stroke-linejoin="round"/>
<path d="M765.962 122.5C765.973 122.765 765.985 123.018 766.008 123.282" stroke="#171717" stroke-width="3.449" stroke-linecap="round" stroke-linejoin="round"/>
<path d="M765.962 122.496V122.485" stroke="#171717" stroke-width="3.449" stroke-linecap="round" stroke-linejoin="round"/>
<path d="M796.9 106.208C796.71 103.361 795.628 100.647 793.808 98.4494C790.233 94.2764 783.784 93.2424 778.68 95.2764C773.576 97.3104 769.78 101.932 767.852 107.082C766.168 112.031 765.526 117.274 765.967 122.482" stroke="#171717" stroke-width="3.449" stroke-linecap="round" stroke-linejoin="round"/>
<path d="M796.899 106.208C795.928 110.56 795.37 114.993 795.232 119.45C796.308 115.209 797.299 110.5 796.899 106.208Z" stroke="#171717" stroke-width="3.449" stroke-linecap="round" stroke-linejoin="round"/>
<path d="M819.218 125.728C822.563 120.128 825.747 114.256 826.276 107.795C826.851 100.726 823.176 92.7596 816.333 90.8856C809.746 89.0806 802.746 93.6096 799.447 99.5856C798.31 101.671 797.452 103.897 796.895 106.207" stroke="#171717" stroke-width="3.449" stroke-linecap="round" stroke-linejoin="round"/>
<path d="M819.217 125.728C818.859 126.224 818.544 126.751 818.275 127.302C818.585 126.785 818.907 126.256 819.217 125.728Z" stroke="#171717" stroke-width="3.449" stroke-linecap="round" stroke-linejoin="round"/>
<path d="M765.962 122.486C765.456 118.405 761.122 115.244 756.95 115.52C752.466 115.807 748.639 119.32 747.018 123.509C745.397 127.698 745.696 132.395 746.818 136.74C745.933 133.326 723.392 136.774 720.713 137.383C718.184 137.958 711.448 138.418 714.219 141.947C716.127 144.372 723.863 143.177 726.645 143.257L786.901 145.085L820.835 146.12C826.479 146.292 832.617 146.315 837.146 142.92C843.227 138.368 843.48 127.965 837.629 123.126C832.261 118.677 823.237 120.16 819.214 125.726" stroke="#171717" stroke-width="3.449" stroke-linecap="round" stroke-linejoin="round"/>
<path d="M302.425 581.5C310.77 581.638 319.242 581.9 327.346 579.868C335.45 577.836 343.29 573.097 347.014 565.614C350.738 558.131 349.141 547.797 342.129 543.256C339.75 541.82 337.038 541.029 334.26 540.96C331.483 540.892 328.735 541.548 326.289 542.865C323.87 544.228 321.768 546.088 320.121 548.324C318.474 550.559 317.32 553.118 316.736 555.832C317.793 549.675 317.581 543.368 316.115 537.295C314.648 531.223 311.957 525.514 308.207 520.519C303.46 514.254 295.999 508.989 288.252 510.346C280.067 511.794 274.688 520.381 274.113 528.68C273.538 536.979 276.607 545.049 279.63 552.797C275.745 547.475 274.205 540.762 270.653 535.197C267.101 529.632 259.985 525.185 254.066 528.105C251.042 529.599 249.123 532.68 247.866 535.805C245.987 540.619 245.306 545.818 245.881 550.954C246.456 556.09 248.269 561.01 251.166 565.29C248.074 562.577 244.821 559.773 240.82 558.818C236.819 557.863 231.889 559.439 230.486 563.302C229.164 566.945 231.279 571.337 229.429 574.728C225.946 581.119 214.761 575.601 211.929 580.51C209.78 584.234 218.803 585.269 221.206 585.395C229.091 585.795 237.483 583.855 245.368 583.222C254.185 582.521 263.018 582.027 271.868 581.74C282.055 581.41 292.241 581.33 302.425 581.5Z" stroke="#171717" stroke-width="3.449" stroke-linecap="round" stroke-linejoin="round"/>
<path d="M747.524 521.822C746.999 523.071 746.855 524.446 747.11 525.776C747.469 524.491 747.609 523.154 747.524 521.822Z" stroke="#171717" stroke-width="3.449" stroke-linecap="round" stroke-linejoin="round"/>
<path d="M766.168 529.443C767.068 523.994 764.11 517.868 758.857 516.212C754.397 514.812 749.178 517.695 747.523 521.822" stroke="#171717" stroke-width="3.449" stroke-linecap="round" stroke-linejoin="round"/>
<path d="M766.169 529.443C765.995 529.967 765.868 530.506 765.789 531.052C765.96 530.528 766.088 529.989 766.169 529.443V529.443Z" stroke="#171717" stroke-width="3.449" stroke-linecap="round" stroke-linejoin="round"/>
<path d="M747.524 521.822C747.37 519.405 746.573 517.072 745.217 515.065C743.861 513.057 741.995 511.447 739.81 510.4C736.944 509.21 733.769 508.977 730.76 509.737C727.751 510.497 725.067 512.209 723.11 514.618C721.253 517.105 720.185 520.093 720.046 523.194C719.906 526.295 720.702 529.367 722.329 532.01C718.282 526.32 708.879 525.619 704.029 530.643C700.281 534.543 699.695 542.379 703.5 546.529C707.351 550.713 713.857 548.667 718.949 548.253C736.283 546.828 753.616 545.406 770.949 543.988C775.042 543.655 779.41 543.218 782.628 540.643C787.939 536.413 787.18 526.78 781.283 523.412C775.869 520.332 768.122 523.677 766.167 529.447" stroke="#171717" stroke-width="3.449" stroke-linecap="round" stroke-linejoin="round"/>
<path d="M443.159 859.601C443.377 859.566 443.584 859.521 443.802 859.486C452.331 857.984 461.08 858.29 469.482 860.386" stroke="#171717" stroke-width="3.449" stroke-linecap="round" stroke-linejoin="round"/>
<path d="M429.537 871.6C429.652 871.577 429.755 871.565 429.87 871.542C440.213 869.8 450.819 870.469 460.861 873.496" stroke="#171717" stroke-width="3.449" stroke-linecap="round" stroke-linejoin="round"/>
<path d="M670.392 830.637C670.001 830.729 669.61 830.82 669.22 830.924C657.886 833.661 647.32 838.935 638.32 846.35" stroke="#171717" stroke-width="3.449" stroke-linecap="round" stroke-linejoin="round"/>
<path d="M648.2 826.98C648.074 827.015 647.947 827.061 647.832 827.095C638.308 830.144 629.485 835.055 621.877 841.544" stroke="#171717" stroke-width="3.449" stroke-linecap="round" stroke-linejoin="round"/>
<path d="M637.781 815.278H637.85C649.046 815.301 660.269 815.313 671.519 815.313C684.475 815.324 697.46 815.328 710.475 815.324C717.982 815.324 725.488 815.321 732.994 815.313C741.983 815.301 750.976 815.294 759.973 815.29C783.158 815.255 806.321 815.209 829.345 815.14C835.989 815.117 842.61 815.106 849.22 815.071C861.244 815.037 873.215 814.995 885.131 814.945" stroke="#171717" stroke-width="3.449" stroke-linecap="round" stroke-linejoin="round"/>
<path d="M529.831 814.945H529.843C541.349 814.979 554.327 815.014 565.833 815.045" stroke="#171717" stroke-width="3.449" stroke-linecap="round" stroke-linejoin="round"/>
<path d="M64.7891 814.945C72.2724 814.968 79.7554 814.983 87.2381 814.991C101.389 815.037 115.543 815.068 129.701 815.083C141.955 815.107 154.216 815.126 166.485 815.14C193.97 815.175 221.47 815.194 248.985 815.198H266.836C274.136 815.198 281.436 815.194 288.736 815.186C303.336 815.175 317.942 815.16 332.555 815.14C345.131 815.13 357.711 815.111 370.294 815.083C392.778 815.049 415.278 815.003 437.794 814.945" stroke="#171717" stroke-width="3.449" stroke-linecap="round" stroke-linejoin="round"/>
<path d="M87.2383 815.152V814.991V802.703H115.907V762.941H137.552V712.904H168.646V741.584H194.889V715.341H221.121V736.986H248.985H250.606" stroke="#171717" stroke-width="3.449" stroke-linecap="round" stroke-linejoin="round"/>
<path d="M248.984 815.152V736.986V686.132L263.18 674.775L288.734 682.764L289.147 682.89" stroke="#171717" stroke-width="3.449" stroke-linecap="round" stroke-linejoin="round"/>
<path d="M266.836 814.738L263.181 674.775" stroke="#171717" stroke-width="3.449" stroke-linecap="round" stroke-linejoin="round"/>
<path d="M332.554 815.152V815.14V635.416L370.292 647.991V767.677V814.336" stroke="#171717" stroke-width="3.449" stroke-linecap="round" stroke-linejoin="round"/>
<path d="M332.553 635.416L288.734 650.026V682.764V814.738" stroke="#171717" stroke-width="3.449" stroke-linecap="round" stroke-linejoin="round"/>
<path d="M370.292 767.678H385.706V747.39H406.398V788.369H433.572" stroke="#171717" stroke-width="3.449" stroke-linecap="round" stroke-linejoin="round"/>
<path d="M515.934 743.746H516.681H534.866V721.56H558.936" stroke="#171717" stroke-width="3.449" stroke-linecap="round" stroke-linejoin="round"/>
<path d="M643.734 722.64H643.803H662.195V744.549H704.796V720.007H732.993V683.499H759.972L781.468 694.649V727.514H805.814V691.408L829.344 686.339L849.219 693.236V814.945" stroke="#171717" stroke-width="3.449" stroke-linecap="round" stroke-linejoin="round"/>
<path d="M829.345 686.34V814.739" stroke="#171717" stroke-width="3.449" stroke-linecap="round" stroke-linejoin="round"/>
<path d="M759.973 683.499V814.738" stroke="#171717" stroke-width="3.449" stroke-linecap="round" stroke-linejoin="round"/>
<path d="M732.994 720.008V814.739" stroke="#171717" stroke-width="3.449" stroke-linecap="round" stroke-linejoin="round"/>
<path d="M710.475 814.738V757.125H671.519V814.542" stroke="#171717" stroke-width="3.449" stroke-linecap="round" stroke-linejoin="round"/>
<path d="M129.701 814.601V775.391H166.485V814.877" stroke="#171717" stroke-width="3.449" stroke-linecap="round" stroke-linejoin="round"/>
<path d="M453.148 851.407C453.01 851.533 452.86 851.648 452.722 851.775C449.745 854.338 446.772 856.909 443.802 859.488C439.48 863.221 435.158 866.961 430.836 870.707C430.514 870.983 430.192 871.259 429.87 871.546C426.33 874.627 422.835 877.946 421.111 882.34C419.352 886.8 419.663 891.801 420.211 896.571C420.601 899.859 421.222 903.399 423.611 905.641C425.956 907.841 429.382 908.181 432.554 908.422C439.9 908.963 447.245 909.511 454.59 910.066C460.682 910.526 466.913 910.974 472.81 909.308C481.121 906.963 487.765 900.732 494.076 894.697C502.248 886.881 510.421 879.061 518.594 871.236C522.135 867.845 525.813 864.236 527.262 859.511C528.699 854.833 527.721 849.74 526.262 845.073C524.813 840.487 522.917 835.981 522.33 831.199L522.296 830.957" stroke="#171717" stroke-width="3.449" stroke-linecap="round" stroke-linejoin="round"/>
<path fill-rule="evenodd" clip-rule="evenodd" d="M553.351 173.724C563.118 173.671 572.829 173.618 581.765 170.1C582.141 169.958 582.517 169.797 582.889 169.639L582.965 169.606C595.805 164.065 604.507 151.881 610.852 139.42C611.619 138.223 611.997 136.818 611.933 135.397C611.738 133.994 610.312 132.684 608.979 133.167C608.452 133.411 607.991 133.778 607.634 134.236C601.731 140.704 595.831 147.168 589.934 153.628L589.842 153.547C594.613 146.937 597.774 138.837 599.797 130.937C600.748 127.189 601.348 123.051 599.648 119.568C599.464 119.078 599.114 118.667 598.659 118.407C598.283 118.282 597.876 118.286 597.503 118.42C597.131 118.553 596.813 118.808 596.602 119.143C596.196 119.82 595.94 120.576 595.854 121.361C593.811 131.329 589.212 140.594 582.509 148.248C586.417 140.489 586.9 123.752 582.371 123.465C578.91 123.235 578.515 127.859 578.141 132.251C577.988 134.043 577.838 135.796 577.485 137.165C576.301 141.728 574.393 146.465 570.439 149.028C567.301 151.06 563.392 151.396 559.657 151.66C543.927 152.789 528.194 153.922 512.457 155.06L512.468 155.255C514.805 174.61 513.845 194.221 509.629 213.255C508.652 217.635 507.446 222.048 504.997 225.819C502.548 229.59 498.652 232.65 494.18 233.05L494.08 233.371C499.957 235.224 506.281 235.084 512.07 232.971C517.933 230.79 522.669 225.962 525.853 220.571L525.922 220.471V220.46C526.873 206.842 527.816 193.228 528.749 179.618C528.723 178.533 529.019 177.466 529.6 176.549C530.468 175.68 531.618 175.15 532.842 175.055C539.538 173.799 546.459 173.762 553.351 173.724ZM578.209 152.591C578.892 151.928 578.907 150.836 578.243 150.153C577.58 149.47 576.488 149.455 575.805 150.119C573.508 152.351 570.751 154.056 567.727 155.111C564.702 156.167 561.484 156.549 558.296 156.231C557.349 156.136 556.504 156.828 556.409 157.776C556.314 158.723 557.006 159.568 557.954 159.663C561.641 160.031 565.365 159.589 568.864 158.368C572.362 157.146 575.552 155.175 578.209 152.591Z" fill="#171717"/>
<path d="M140.878 457.034C156.658 458.207 170.878 448.202 183.245 438.334C195.612 428.466 208.925 417.734 224.734 417.057" stroke="#171717" stroke-width="3.449" stroke-linecap="round" stroke-linejoin="round"/>
<path d="M189.589 257.501C207.058 238.684 237.533 233.522 260.223 245.538C266.336 248.775 271.851 253.075 278.051 256.138C284.251 259.201 291.551 260.976 298.093 258.738" stroke="#171717" stroke-width="3.449" stroke-linecap="round" stroke-linejoin="round"/>
<path d="M364.123 241.105C373.814 229.679 387.511 221.471 402.351 219.411C417.191 217.351 433.027 221.754 443.968 231.989" stroke="#171717" stroke-width="3.449" stroke-linecap="round" stroke-linejoin="round"/>
<path d="M411.289 465.305C423.938 467.832 437.003 467.37 449.442 463.955" stroke="#171717" stroke-width="3.449" stroke-linecap="round" stroke-linejoin="round"/>
<path d="M687.106 459.542C706.866 455.865 724.65 445.22 737.225 429.542" stroke="#171717" stroke-width="3.449" stroke-linecap="round" stroke-linejoin="round"/>
<path d="M285.81 418.123C292.546 422.192 300.121 424.67 307.959 425.369C315.797 426.069 323.692 424.971 331.042 422.159" stroke="#171717" stroke-width="3.449" stroke-linecap="round" stroke-linejoin="round"/>
<path d="M762.986 638.371L825.121 633.008" stroke="#171717" stroke-width="3.449" stroke-linecap="round" stroke-linejoin="round"/>
<path d="M715.577 630.515L876.283 616.434" stroke="#171717" stroke-width="3.449" stroke-linecap="round" stroke-linejoin="round"/>
<path d="M732.579 609.275L775.179 608.087" stroke="#171717" stroke-width="3.449" stroke-linecap="round" stroke-linejoin="round"/>
<path d="M350.408 503.564H388.139" stroke="#171717" stroke-width="3.449" stroke-linecap="round" stroke-linejoin="round"/>
<path d="M324.85 516.912C357.383 517.832 389.938 516.243 422.227 512.159" stroke="#171717" stroke-width="3.449" stroke-linecap="round" stroke-linejoin="round"/>
<path d="M733.8 193.192L850.648 187.206" stroke="#171717" stroke-width="3.449" stroke-linecap="round" stroke-linejoin="round"/>
<path d="M694.8 213.23C729.709 210.63 764.618 208.033 799.527 205.439" stroke="#171717" stroke-width="3.449" stroke-linecap="round" stroke-linejoin="round"/>
<path d="M722.874 248.277C785.986 242.611 849.267 239.777 912.716 239.777" stroke="#171717" stroke-width="3.449" stroke-linecap="round" stroke-linejoin="round"/>
<path d="M341.894 42.4413L402.756 40.1523" stroke="#171717" stroke-width="3.449" stroke-linecap="round" stroke-linejoin="round"/>
<path d="M291.969 63.7493C311.041 63.0099 330.112 62.2703 349.182 61.5303" stroke="#171717" stroke-width="3.449" stroke-linecap="round" stroke-linejoin="round"/>
<path d="M32.7158 502.034L97.2228 497.156" stroke="#171717" stroke-width="3.449" stroke-linecap="round" stroke-linejoin="round"/>
<path d="M69.2842 518.464L126.49 512.394" stroke="#171717" stroke-width="3.449" stroke-linecap="round" stroke-linejoin="round"/>
<g opacity="0.1">
<path d="M66.4236 426.691C74.4936 434.025 86.1236 436.75 96.5236 439.23C106.803 441.679 117.466 443.269 128.055 442.925C148.165 442.273 166.208 435.377 181.242 422.006C192.489 412.006 202.349 397.578 217.11 392.523C235.994 386.056 256.684 395.855 274.125 402.516C296.107 410.911 319.532 416.434 341.891 406.31C347.172 403.918 348.452 396.257 345.742 391.623C342.564 386.191 336.357 385.374 331.055 387.772C314.615 395.209 294.636 387.478 279.023 381.479C260.612 374.406 241.392 366.964 221.296 369.646C203.278 372.046 189.97 383.117 177.558 395.571C172.248 400.899 167.014 406.624 160.843 410.978C153.708 415.945 145.539 419.226 136.952 420.573C127.413 422.194 117.191 421.573 107.704 419.885C101.815 418.838 96.0306 417.372 90.2706 415.773C84.2806 414.111 78.5096 412.249 72.2226 412.688C65.5986 413.15 60.8076 421.588 66.4226 426.688L66.4236 426.691Z" fill="#171717"/>
</g>
<g opacity="0.1">
<path d="M394.917 365.266C397.736 364.778 400.123 363.166 402.884 362.454C405.585 361.842 408.347 361.538 411.117 361.546C417.846 361.367 424.399 363.195 430.926 364.615C444.912 367.659 459.584 369.523 472.389 361.634C483.153 355.002 473.389 338.134 462.453 344.634C450.514 351.725 435.291 344.897 422.69 343.599C416.107 342.921 409.099 342.959 402.838 345.323C396.888 347.57 389.474 351.665 388.055 358.405C387.128 362.805 390.643 366.005 394.917 365.266V365.266Z" fill="#171717"/>
</g>
<g opacity="0.1">
<path d="M520.415 269.962L520.573 270.089L520.15 273.324C519.327 274.659 519.35 273.6 520.508 273.184C521.014 273.002 521.426 272.612 521.919 272.442C523.475 271.903 525.494 272.161 527.127 271.791C529.203 271.368 531.159 270.488 532.854 269.217C534.549 267.945 535.94 266.312 536.927 264.437C538.727 260.916 538.383 256.471 538.427 252.612C538.488 247.066 538.627 241.461 538.502 235.918C538.386 230.648 537.615 225.518 537.674 220.205C537.732 214.966 537.874 209.73 538.013 204.492L538.434 188.78C538.574 183.555 539.393 177.917 538.145 172.815C537.028 168.252 530.463 168.549 529.195 172.815C527.702 177.838 528.301 183.562 528.186 188.78L527.817 205.474C527.694 211.042 527.547 216.604 527.336 222.174C527.111 228.135 525.886 233.88 525.676 239.851C525.583 242.471 525.459 245.089 525.325 247.707C525.225 249.707 525.615 252.633 525.055 254.495C523.85 258.503 519.494 257.631 516.387 259.343C509.596 263.084 508.545 273.543 516.857 276.078C520.593 277.216 522.634 272.578 520.414 269.967L520.415 269.962Z" fill="#171717"/>
</g>
</g>
<defs>
<clipPath id="clip0_38_4074">
<rect width="960" height="960" fill="white"/>
</clipPath>
</defs>
</svg>
