<?xml version="1.0" encoding="UTF-8"?><svg id="Layer_1" xmlns="http://www.w3.org/2000/svg" viewBox="0 0 200 60"><defs><style>.cls-1{fill:#1c1c1c;}</style></defs><path d="M48.62,29.29c.04,1.05-.4,2.12-1.3,2.85l-12.21,10.01c-1.37.99-3.21-.57-3.21-1.87,0-.16.03-.31.08-.45.62-1.67,4.7-5.97,4.7-10.42,0-.04,0-.07,0-.11,0-.04,0-.07,0-.11,0-4.45-4.08-8.75-4.7-10.42-.06-.14-.08-.3-.08-.45,0-1.3,1.84-2.86,3.21-1.87l12.21,10.01c.9.74,1.33,1.8,1.3,2.85Z"/><path d="M9.38,29.31c-.04,1.05.4,2.12,1.3,2.85l12.21,10.01c1.37.99,3.21-.57,3.21-1.87,0-.16-.03-.31-.08-.45-.62-1.67-4.7-5.97-4.7-10.42,0-.04,0-.07,0-.11,0-.04,0-.07,0-.11,0-4.45,4.08-8.75,4.7-10.42.06-.14.08-.3.08-.45,0-1.3-1.84-2.86-3.21-1.87l-12.21,10.01c-.9.74-1.33,1.8-1.3,2.85Z"/><circle cx="29.03" cy="29.29" r="4.8"/><path d="M67.6,36.61c-1.19,1.02-2.72,1.53-4.6,1.53-2.16,0-3.9-.66-5.21-1.99-1.31-1.33-1.96-3.09-1.96-5.29s.66-4.1,1.98-5.48c1.32-1.38,3.07-2.07,5.25-2.07,1.87,0,3.4.48,4.58,1.43,1.18.95,1.85,2.25,2.02,3.89h-3.79c-.29-1.62-1.22-2.43-2.78-2.43-1.05,0-1.88.4-2.47,1.21-.59.81-.89,1.93-.89,3.37s.29,2.49.86,3.26,1.38,1.16,2.41,1.16c1.69,0,2.69-.95,3-2.84h3.74c-.24,1.82-.95,3.24-2.14,4.25Z"/><path d="M82.3,25.34c1.32,1.36,1.98,3.16,1.98,5.4s-.66,4.06-1.98,5.43c-1.32,1.36-3.08,2.05-5.28,2.05s-3.96-.68-5.29-2.05c-1.33-1.36-1.99-3.17-1.99-5.43s.67-4.04,2.02-5.4,3.12-2.05,5.32-2.05,3.9.68,5.22,2.05ZM74.51,27.44c-.6.8-.9,1.9-.9,3.3s.3,2.55.9,3.35c.6.8,1.44,1.2,2.51,1.2s1.9-.4,2.5-1.21c.59-.81.89-1.93.89-3.37s-.3-2.5-.91-3.29c-.61-.79-1.45-1.19-2.52-1.19s-1.85.4-2.45,1.2Z"/><path d="M94.91,37.78v-1.8c-.93,1.45-2.35,2.18-4.25,2.18s-3.5-.68-4.65-2.03-1.73-3.17-1.73-5.44.56-4,1.68-5.35c1.12-1.35,2.61-2.02,4.49-2.02.87,0,1.7.18,2.47.55.77.36,1.38.89,1.81,1.58v-7.09h3.85v19.42h-3.65ZM93.97,27.53c-.59-.76-1.41-1.15-2.47-1.15s-1.87.38-2.45,1.15c-.58.76-.87,1.82-.87,3.16s.3,2.43.89,3.2,1.4,1.16,2.44,1.16,1.9-.38,2.48-1.13.87-1.82.87-3.2-.3-2.43-.89-3.19Z"/><path d="M109.95,36.93c-1.17.84-2.57,1.25-4.19,1.25-2.16,0-3.9-.67-5.22-2.02-1.32-1.35-1.98-3.13-1.98-5.35s.66-3.98,1.99-5.4c1.33-1.42,3.02-2.13,5.07-2.13s3.82.72,5.07,2.17,1.88,3.4,1.88,5.88v.38h-10.09c.02,1.22.31,2.15.89,2.78.57.64,1.38.95,2.41.95,1.36,0,2.32-.68,2.86-2.05h3.71c-.44,1.51-1.24,2.68-2.41,3.52ZM107.76,26.99c-.51-.59-1.22-.89-2.13-.89-.85,0-1.56.28-2.13.85s-.9,1.34-1.01,2.32h6.16c-.09-.93-.39-1.69-.9-2.28Z"/><path class="cls-1" d="M124.35,36.61c-1.19,1.02-2.72,1.53-4.6,1.53-2.16,0-3.9-.66-5.21-1.99-1.31-1.33-1.96-3.09-1.96-5.29s.66-4.1,1.98-5.48,3.07-2.07,5.25-2.07c1.87,0,3.4.48,4.58,1.43,1.18.95,1.85,2.25,2.02,3.89h-3.79c-.29-1.62-1.22-2.43-2.78-2.43-1.05,0-1.88.4-2.47,1.21-.59.81-.89,1.93-.89,3.37s.29,2.49.86,3.26,1.38,1.16,2.41,1.16c1.69,0,2.69-.95,3-2.84h3.74c-.24,1.82-.95,3.24-2.14,4.25Z"/><path class="cls-1" d="M139,25.34c1.32,1.36,1.98,3.16,1.98,5.4s-.66,4.06-1.98,5.43c-1.32,1.36-3.08,2.05-5.28,2.05s-3.96-.68-5.29-2.05c-1.33-1.36-1.99-3.17-1.99-5.43s.67-4.04,2.02-5.4,3.12-2.05,5.32-2.05,3.9.68,5.22,2.05ZM131.21,27.44c-.6.8-.9,1.9-.9,3.3s.3,2.55.9,3.35,1.44,1.2,2.51,1.2,1.9-.4,2.5-1.21c.59-.81.89-1.93.89-3.37s-.3-2.5-.91-3.29c-.61-.79-1.45-1.19-2.52-1.19s-1.85.4-2.45,1.2Z"/><path class="cls-1" d="M150.35,37.78c-.13-.36-.22-.82-.27-1.36-1.18,1.18-2.7,1.77-4.55,1.77-1.56,0-2.79-.38-3.68-1.13s-1.34-1.8-1.34-3.12c0-.6.08-1.13.23-1.58.15-.45.41-.84.76-1.15.35-.31.69-.56,1.01-.76.32-.2.76-.36,1.32-.49s1.02-.22,1.36-.29.83-.13,1.45-.2c1.36-.18,2.28-.37,2.74-.57.46-.2.7-.57.7-1.12,0-1.25-.85-1.88-2.54-1.88-.89,0-1.55.16-1.96.48s-.69.88-.82,1.68h-3.63c.22-3.16,2.39-4.75,6.52-4.75s6.14,1.53,6.14,4.58v6.08c0,1.78.16,3.05.49,3.82h-3.93ZM147.33,31.67c-1.15.18-1.89.41-2.24.68-.4.35-.6.82-.6,1.42s.19,1.04.56,1.38c.37.34.9.5,1.57.5,1.04,0,1.87-.28,2.5-.83.63-.55.94-1.32.94-2.3v-1.58c-.45.27-1.36.52-2.73.74Z"/><path class="cls-1" d="M165.63,36.61c-1.19,1.02-2.72,1.53-4.6,1.53-2.16,0-3.9-.66-5.21-1.99-1.31-1.33-1.96-3.09-1.96-5.29s.66-4.1,1.98-5.48c1.32-1.38,3.07-2.07,5.25-2.07,1.87,0,3.4.48,4.58,1.43,1.18.95,1.85,2.25,2.02,3.89h-3.79c-.29-1.62-1.22-2.43-2.78-2.43-1.05,0-1.88.4-2.47,1.21-.59.81-.89,1.93-.89,3.37s.29,2.49.86,3.26,1.38,1.16,2.41,1.16c1.69,0,2.69-.95,3-2.84h3.74c-.24,1.82-.95,3.24-2.14,4.25Z"/><path class="cls-1" d="M171.59,25.59c1.11-1.49,2.59-2.24,4.45-2.24,3.29,0,4.94,1.74,4.94,5.21v9.22h-3.87v-8.29c0-.96-.17-1.7-.52-2.21s-1-.76-1.96-.76c-1.16,0-1.96.37-2.39,1.12-.43.75-.64,1.74-.64,2.97v7.17h-3.82v-19.42h3.82v7.23Z"/></svg>